<svg xmlns="http://www.w3.org/2000/svg" width="1200" height="680"><rect width="1200" height="680" fill="#080a0d"/><text x="60" y="75" fill="#ffd580" font-family="Arial" font-size="27" font-weight="700">LEAD PIPELINE</text><g font-family="Arial"><g fill="#121820" stroke="#3b4149"><rect x="55" y="120" width="250" height="500" rx="18"/><rect x="330" y="120" width="250" height="500" rx="18"/><rect x="605" y="120" width="250" height="500" rx="18"/><rect x="880" y="120" width="265" height="500" rx="18"/></g><g fill="#ffd580" font-size="16" font-weight="700"><text x="80" y="160">DISCOVERED · 248</text><text x="355" y="160">ENRICHED · 164</text><text x="630" y="160">QUALIFIED · 71</text><text x="905" y="160">OUTREACH · 34</text></g><g fill="#1c242e"><rect x="78" y="190" width="205" height="82" rx="10"/><rect x="78" y="290" width="205" height="82" rx="10"/><rect x="353" y="190" width="205" height="110" rx="10"/><rect x="628" y="190" width="205" height="150" rx="10"/><rect x="903" y="190" width="218" height="190" rx="10"/></g><g fill="#d8dee6" font-size="15"><text x="98" y="225">Acme Property Group</text><text x="98" y="325">Apex Restoration</text><text x="373" y="225">Contact enriched</text><text x="648" y="225">Score 92 / 100</text><text x="923" y="225">Sequence active</text></g></g></svg>
